<svg xmlns="http://www.w3.org/2000/svg" height="590pt" version="1.1" viewBox="-193 0 590 590.60879" width="590pt">
<g id="surface1">
<path d="M 163.433594 407.625 L 163.433594 61.121094 C 163.433594 27.363281 136.070312 0 102.308594 0 C 68.550781 0 41.1875 27.363281 41.1875 61.121094 L 41.1875 407.625 C -3.820312 441.386719 -12.945312 505.238281 20.8125 550.246094 C 54.574219 595.253906 118.425781 604.378906 163.433594 570.621094 C 208.441406 536.859375 217.566406 473.007812 183.808594 428 C 178.019531 420.277344 171.15625 413.421875 163.433594 407.625 Z M 163.433594 407.625 " style=" stroke:none;fill-rule:nonzero;fill:rgb(41.176471%,80%,84.313725%);fill-opacity:1;" />
<path d="M 163.433594 407.625 L 163.433594 244.488281 L 41.1875 366.734375 L 41.1875 407.625 C -3.820312 441.386719 -12.945312 505.238281 20.8125 550.246094 C 54.574219 595.253906 118.425781 604.378906 163.433594 570.621094 C 208.441406 536.859375 217.566406 473.007812 183.808594 428 C 178.019531 420.277344 171.15625 413.421875 163.433594 407.625 Z M 163.433594 407.625 " style=" stroke:none;fill-rule:nonzero;fill:rgb(38.039216%,74.117647%,78.039216%);fill-opacity:1;" />
<path d="M 143.058594 488.980469 C 143.058594 511.484375 124.816406 529.726562 102.308594 529.726562 C 79.804688 529.726562 61.5625 511.484375 61.5625 488.980469 C 61.5625 466.476562 79.804688 448.230469 102.308594 448.230469 C 124.816406 448.230469 143.058594 466.476562 143.058594 488.980469 Z M 143.058594 488.980469 " style=" stroke:none;fill-rule:nonzero;fill:rgb(92.941176%,19.215686%,14.117647%);fill-opacity:1;" />
<path d="M 92.125 81.496094 L 112.496094 81.496094 L 112.496094 478.792969 L 92.125 478.792969 Z M 92.125 81.496094 " style=" stroke:none;fill-rule:nonzero;fill:rgb(92.941176%,19.215686%,14.117647%);fill-opacity:1;" />
<path d="M 41.1875 356.546875 L 71.75 356.546875 L 71.75 376.921875 L 41.1875 376.921875 Z M 41.1875 356.546875 " style=" stroke:none;fill-rule:nonzero;fill:rgb(31.764706%,61.568627%,65.098039%);fill-opacity:1;" />
<path d="M 41.1875 305.613281 L 71.75 305.613281 L 71.75 325.988281 L 41.1875 325.988281 Z M 41.1875 305.613281 " style=" stroke:none;fill-rule:nonzero;fill:rgb(31.764706%,61.568627%,65.098039%);fill-opacity:1;" />
<path d="M 41.1875 254.675781 L 71.75 254.675781 L 71.75 275.050781 L 41.1875 275.050781 Z M 41.1875 254.675781 " style=" stroke:none;fill-rule:nonzero;fill:rgb(31.764706%,61.568627%,65.098039%);fill-opacity:1;" />
<path d="M 41.1875 203.742188 L 71.75 203.742188 L 71.75 224.117188 L 41.1875 224.117188 Z M 41.1875 203.742188 " style=" stroke:none;fill-rule:nonzero;fill:rgb(31.764706%,61.568627%,65.098039%);fill-opacity:1;" />
<path d="M 41.1875 152.804688 L 71.75 152.804688 L 71.75 173.179688 L 41.1875 173.179688 Z M 41.1875 152.804688 " style=" stroke:none;fill-rule:nonzero;fill:rgb(31.764706%,61.568627%,65.098039%);fill-opacity:1;" />
<path d="M 41.1875 101.871094 L 71.75 101.871094 L 71.75 122.246094 L 41.1875 122.246094 Z M 41.1875 101.871094 " style=" stroke:none;fill-rule:nonzero;fill:rgb(31.764706%,61.568627%,65.098039%);fill-opacity:1;" />
</g>
</svg>